<svg xmlns="http://www.w3.org/2000/svg" width="840" height="132" viewBox="0 0 840 132" role="img" aria-label="Turnera">
<title>Turnera</title>
<style>
.a { animation-fill-mode: both; animation-timing-function: cubic-bezier(0.16, 1, 0.3, 1); }
.caja { transform-box: fill-box; }
@keyframes trazar { from { stroke-dashoffset: 1; } }
@keyframes crecer-x { from { transform: scaleX(0); } }
@keyframes crecer-y { from { transform: scaleY(0); } }
@keyframes aparecer { from { transform: scale(0); } }
@keyframes titilar { 0%, 100% { opacity: 1; } 50% { opacity: 0.2; } }
@keyframes onda { from { transform: scale(1); opacity: 0.9; } to { transform: scale(5); opacity: 0; } }
@media (prefers-reduced-motion: reduce) {
  * { animation: none !important; }
}
</style>
<rect class="a caja" x="0" y="0" width="840" height="1" fill="#C6CDD8" style="transform-origin:0 0;animation-name:crecer-x;animation-duration:1.4s;animation-delay:1.75s;"/>
<path fill="#0E1117" d="M9.66 108L9.66 57.60L0 57.60L0 49.20L28.56 49.20L28.56 57.60L18.90 57.60L18.90 108L9.66 108ZM46.45 108.84Q39.73 108.84 36.20 105.02Q32.68 101.20 32.68 94.06L32.68 94.06L32.68 49.20L41.92 49.20L41.92 94.73Q41.92 97.75 43.13 99.10Q44.35 100.44 46.62 100.44L46.62 100.44Q48.89 100.44 50.11 99.10Q51.32 97.75 51.32 94.73L51.32 94.73L51.32 49.20L60.23 49.20L60.23 94.06Q60.23 101.20 56.70 105.02Q53.17 108.84 46.45 108.84L46.45 108.84ZM66.78 108L66.78 49.20L80.47 49.20Q87.61 49.20 90.89 52.52Q94.16 55.84 94.16 62.72L94.16 62.72L94.16 66.34Q94.16 75.49 88.12 77.93L88.12 77.93L88.12 78.10Q91.48 79.10 92.86 82.21Q94.25 85.32 94.25 90.53L94.25 90.53L94.25 100.86Q94.25 103.38 94.42 104.93Q94.58 106.49 95.26 108L95.26 108L85.85 108Q85.34 106.57 85.18 105.31Q85.01 104.05 85.01 100.78L85.01 100.78L85.01 90.02Q85.01 85.99 83.71 84.40Q82.40 82.80 79.21 82.80L79.21 82.80L76.02 82.80L76.02 108L66.78 108ZM76.02 74.40L79.38 74.40Q82.15 74.40 83.54 72.97Q84.92 71.54 84.92 68.18L84.92 68.18L84.92 63.65Q84.92 60.46 83.79 59.03Q82.66 57.60 80.22 57.60L80.22 57.60L76.02 57.60L76.02 74.40ZM100.63 108L100.63 49.20L112.22 49.20L121.21 84.40L121.38 84.40L121.38 49.20L129.61 49.20L129.61 108L120.12 108L109.03 65.08L108.86 65.08L108.86 108L100.63 108ZM136.50 108L136.50 49.20L161.70 49.20L161.70 57.60L145.74 57.60L145.74 73.14L158.42 73.14L158.42 81.54L145.74 81.54L145.74 99.60L161.70 99.60L161.70 108L136.50 108ZM166.99 108L166.99 49.20L180.68 49.20Q187.82 49.20 191.10 52.52Q194.38 55.84 194.38 62.72L194.38 62.72L194.38 66.34Q194.38 75.49 188.33 77.93L188.33 77.93L188.33 78.10Q191.69 79.10 193.07 82.21Q194.46 85.32 194.46 90.53L194.46 90.53L194.46 100.86Q194.46 103.38 194.63 104.93Q194.80 106.49 195.47 108L195.47 108L186.06 108Q185.56 106.57 185.39 105.31Q185.22 104.05 185.22 100.78L185.22 100.78L185.22 90.02Q185.22 85.99 183.92 84.40Q182.62 82.80 179.42 82.80L179.42 82.80L176.23 82.80L176.23 108L166.99 108ZM176.23 74.40L179.59 74.40Q182.36 74.40 183.75 72.97Q185.14 71.54 185.14 68.18L185.14 68.18L185.14 63.65Q185.14 60.46 184.00 59.03Q182.87 57.60 180.43 57.60L180.43 57.60L176.23 57.60L176.23 74.40ZM198.41 108L207.98 49.20L220.50 49.20L230.08 108L220.84 108L219.16 96.32L219.16 96.49L208.66 96.49L206.98 108L198.41 108ZM209.75 88.51L218.06 88.51L213.95 59.45L213.78 59.45L209.75 88.51Z"/>
<g transform="translate(670 22)"><rect x="3.5" y="6.5" width="26" height="14" fill="none" stroke="#E0E3E9"/><rect x="3.5" y="27.5" width="26" height="14" fill="none" stroke="#E0E3E9"/><rect x="3.5" y="48.5" width="26" height="14" fill="none" stroke="#E0E3E9"/><rect x="3.5" y="69.5" width="26" height="14" fill="none" stroke="#E0E3E9"/><rect x="36.5" y="6.5" width="26" height="14" fill="none" stroke="#E0E3E9"/><rect x="36.5" y="27.5" width="26" height="14" fill="none" stroke="#E0E3E9"/><rect x="36.5" y="48.5" width="26" height="14" fill="none" stroke="#E0E3E9"/><rect x="36.5" y="69.5" width="26" height="14" fill="none" stroke="#E0E3E9"/><rect x="69.5" y="6.5" width="26" height="14" fill="none" stroke="#E0E3E9"/><rect x="69.5" y="27.5" width="26" height="14" fill="none" stroke="#E0E3E9"/><rect x="69.5" y="48.5" width="26" height="14" fill="none" stroke="#E0E3E9"/><rect x="69.5" y="69.5" width="26" height="14" fill="none" stroke="#E0E3E9"/><rect x="102.5" y="6.5" width="26" height="14" fill="none" stroke="#E0E3E9"/><rect x="102.5" y="27.5" width="26" height="14" fill="none" stroke="#E0E3E9"/><rect x="102.5" y="48.5" width="26" height="14" fill="none" stroke="#E0E3E9"/><rect x="102.5" y="69.5" width="26" height="14" fill="none" stroke="#E0E3E9"/><rect x="135.5" y="6.5" width="26" height="14" fill="none" stroke="#E0E3E9"/><rect x="135.5" y="27.5" width="26" height="14" fill="none" stroke="#E0E3E9"/><rect x="135.5" y="48.5" width="26" height="14" fill="none" stroke="#E0E3E9"/><rect x="135.5" y="69.5" width="26" height="14" fill="none" stroke="#E0E3E9"/><rect class="a caja" x="3" y="27" width="27" height="15" fill="#C6CDD8" style="transform-origin:center;animation-name:aparecer;animation-duration:0.7s;animation-delay:2.3s;"/><rect class="a caja" x="3" y="69" width="27" height="15" fill="#C6CDD8" style="transform-origin:center;animation-name:aparecer;animation-duration:0.7s;animation-delay:2.4s;"/><rect class="a caja" x="36" y="6" width="27" height="15" fill="#C6CDD8" style="transform-origin:center;animation-name:aparecer;animation-duration:0.7s;animation-delay:2.37s;"/><rect class="a caja" x="36" y="48" width="27" height="15" fill="#C6CDD8" style="transform-origin:center;animation-name:aparecer;animation-duration:0.7s;animation-delay:2.47s;"/><rect class="a caja" x="69" y="27" width="27" height="15" fill="#6C5CFF" style="transform-origin:center;animation-name:aparecer;animation-duration:0.7s;animation-delay:3.55s;"/><rect class="a caja" x="69" y="69" width="27" height="15" fill="#C6CDD8" style="transform-origin:center;animation-name:aparecer;animation-duration:0.7s;animation-delay:2.64s;"/><rect class="a caja" x="102" y="27" width="27" height="15" fill="#C6CDD8" style="transform-origin:center;animation-name:aparecer;animation-duration:0.7s;animation-delay:2.66s;"/><rect class="a caja" x="135" y="6" width="27" height="15" fill="#C6CDD8" style="transform-origin:center;animation-name:aparecer;animation-duration:0.7s;animation-delay:2.73s;"/><rect class="a caja" x="135" y="48" width="27" height="15" fill="#C6CDD8" style="transform-origin:center;animation-name:aparecer;animation-duration:0.7s;animation-delay:2.83s;"/></g>
</svg>
